# xmcd
#
# Track frame offsets: 
#        150
#        25723
#        47365
#        63948
#        81283
#        101065
#        120898
#        139088
#        160373
#        176928
#
# Disc length: 2599 seconds
#
# Revision: 3
# Processed by: cddbd v1.5.2PL0 Copyright (c) Steve Scherf et al.
# Submitted via: ExactAudioCopy v1.0b2
#
DISCID=7b0a250a
DTITLE=Ismael Rivera Y Sus Cachimbos - Traigo De Todo
DYEAR=1974
DGENRE=Salsa
TTITLE0=El Nazareno
TTITLE1=Que Te Pasa A Ti
TTITLE2=Witinila
TTITLE3=Lagrimas Puras
TTITLE4=Orgullosa
TTITLE5=Traigo De Todo
TTITLE6=El Niche
TTITLE7=Satelite
TTITLE8=Colobo
TTITLE9=No Quiero Piedras En Mi Camino
EXTD=YEAR: 1974
EXTT0=
EXTT1=
EXTT2=
EXTT3=
EXTT4=
EXTT5=
EXTT6=
EXTT7=
EXTT8=
EXTT9=
PLAYORDER=
